<?xml version="1.0" standalone="no"?>
<!DOCTYPE svg PUBLIC "-//W3C//DTD SVG 20010904//EN"
 "http://www.w3.org/TR/2001/REC-SVG-20010904/DTD/svg10.dtd">
<svg version="1.0" xmlns="http://www.w3.org/2000/svg"
 width="2400.000000pt" height="1800.000000pt" viewBox="0 0 2400.000000 1800.000000"
 preserveAspectRatio="xMidYMid meet">

<g transform="translate(0.000000,1800.000000) scale(0.100000,-0.100000)"
fill="#000000" stroke="none">
<path d="M5206 14395 c-4 -11 -21 -15 -64 -15 -41 0 -64 -5 -72 -15 -7 -8 -20
-15 -30 -15 -10 0 -23 -7 -30 -15 -7 -8 -27 -15 -45 -15 -20 0 -35 -6 -39 -15
-3 -8 -13 -15 -23 -15 -10 0 -30 -11 -45 -25 -15 -14 -33 -25 -41 -25 -7 0
-26 -13 -42 -30 -16 -16 -36 -30 -45 -30 -20 0 -140 -120 -140 -141 0 -8 -18
-33 -40 -54 -22 -21 -40 -47 -40 -56 0 -9 -7 -22 -15 -29 -8 -7 -15 -27 -15
-45 0 -20 -6 -35 -15 -39 -8 -3 -15 -14 -15 -25 0 -11 -4 -23 -10 -26 -5 -3
-10 -14 -10 -24 0 -10 -7 -24 -15 -31 -11 -9 -15 -34 -15 -100 0 -66 -4 -91
-15 -100 -8 -7 -15 -21 -15 -32 0 -10 -7 -21 -15 -24 -9 -4 -15 -19 -15 -39 0
-18 -7 -38 -15 -45 -10 -9 -15 -32 -15 -75 0 -41 -4 -65 -12 -67 -7 -3 -11
-18 -10 -35 1 -17 -4 -36 -13 -43 -8 -7 -15 -20 -15 -30 0 -10 -7 -23 -15 -30
-10 -8 -15 -31 -15 -70 0 -39 -5 -62 -15 -70 -8 -7 -15 -27 -15 -45 0 -18 -7
-38 -15 -45 -8 -7 -15 -21 -15 -31 0 -10 -4 -21 -10 -24 -5 -3 -10 -30 -10
-60 0 -34 -5 -59 -15 -69 -8 -8 -15 -28 -15 -44 0 -16 -7 -35 -15 -42 -8 -7
-15 -27 -15 -45 0 -18 -7 -38 -15 -45 -9 -8 -15 -30 -15 -60 0 -33 -5 -50 -15
-54 -9 -3 -15 -19 -15 -41 0 -20 -7 -49 -14 -64 -8 -15 -13 -37 -10 -48 3 -11
-1 -25 -10 -32 -9 -8 -16 -28 -16 -46 0 -18 -7 -38 -15 -45 -9 -7 -15 -29 -15
-55 0 -26 -6 -48 -15 -55 -9 -8 -15 -30 -15 -60 0 -30 -6 -52 -15 -60 -8 -7
-15 -26 -15 -42 0 -16 -7 -36 -15 -45 -9 -8 -13 -23 -10 -32 3 -9 -2 -26 -10
-37 -8 -10 -15 -40 -15 -65 0 -25 -7 -54 -15 -65 -8 -10 -15 -36 -15 -57 0
-24 -5 -40 -15 -43 -8 -4 -15 -16 -15 -29 0 -12 -7 -28 -15 -35 -9 -8 -15 -30
-15 -57 0 -24 -7 -57 -14 -72 -8 -15 -13 -37 -10 -48 3 -11 -1 -27 -10 -36 -9
-8 -16 -22 -16 -29 0 -8 -7 -23 -15 -34 -8 -11 -14 -42 -15 -75 0 -41 -4 -58
-15 -63 -10 -3 -15 -19 -15 -44 0 -21 -7 -47 -15 -58 -8 -10 -15 -27 -15 -37
0 -10 -7 -25 -16 -34 -10 -11 -13 -25 -9 -45 5 -19 1 -37 -9 -53 -9 -13 -16
-38 -16 -55 0 -18 -6 -33 -15 -36 -9 -4 -15 -19 -15 -39 0 -18 -7 -38 -15 -45
-8 -7 -15 -27 -15 -44 0 -17 -7 -40 -15 -50 -9 -12 -15 -42 -15 -72 0 -34 -5
-56 -15 -64 -8 -7 -15 -21 -15 -31 0 -10 -4 -21 -10 -24 -5 -3 -10 -19 -10
-35 0 -16 -7 -35 -15 -44 -10 -10 -15 -35 -15 -76 0 -45 -4 -62 -15 -66 -10
-4 -15 -20 -15 -44 0 -24 -5 -40 -15 -44 -8 -3 -15 -14 -15 -24 0 -11 -7 -25
-15 -32 -11 -9 -15 -30 -14 -73 1 -39 -2 -62 -9 -65 -7 -2 -12 -18 -12 -37 0
-18 -7 -38 -15 -45 -8 -7 -15 -21 -15 -32 0 -10 -7 -21 -15 -24 -11 -5 -15
-22 -15 -69 0 -43 -5 -66 -15 -75 -8 -7 -15 -26 -15 -42 0 -16 -7 -36 -15 -44
-8 -9 -15 -26 -15 -39 0 -13 -4 -27 -10 -30 -5 -3 -10 -28 -10 -54 0 -26 -7
-56 -15 -67 -8 -10 -15 -31 -15 -45 0 -15 -7 -32 -15 -39 -8 -7 -15 -27 -15
-45 0 -18 -7 -38 -15 -45 -9 -8 -15 -30 -15 -60 0 -30 -6 -52 -15 -60 -9 -8
-15 -30 -15 -56 0 -24 -4 -44 -10 -44 -5 0 -10 -8 -10 -18 0 -10 -7 -27 -15
-38 -9 -11 -14 -42 -15 -77 0 -42 -4 -59 -15 -63 -9 -4 -15 -19 -15 -39 0 -18
-7 -38 -15 -45 -8 -7 -15 -27 -15 -45 0 -18 -7 -38 -15 -45 -9 -7 -15 -30 -15
-54 0 -22 -7 -49 -14 -59 -7 -9 -11 -27 -9 -40 3 -14 -2 -29 -11 -36 -10 -9
-16 -29 -16 -56 0 -26 -6 -48 -15 -55 -8 -7 -15 -27 -15 -45 0 -18 -7 -38 -15
-45 -8 -7 -15 -27 -15 -45 0 -20 -6 -35 -15 -39 -11 -4 -15 -22 -15 -69 0 -45
-5 -68 -15 -77 -9 -7 -13 -21 -9 -34 3 -14 -1 -28 -10 -35 -9 -8 -16 -21 -16
-30 0 -10 -7 -26 -15 -37 -8 -11 -14 -42 -15 -75 0 -41 -4 -58 -15 -63 -9 -3
-15 -18 -15 -39 0 -19 -7 -40 -15 -47 -8 -7 -15 -26 -15 -42 0 -16 -7 -36 -15
-44 -9 -9 -13 -25 -9 -38 3 -14 -1 -27 -10 -35 -11 -9 -16 -31 -16 -70 0 -51
-4 -61 -30 -86 -27 -26 -30 -35 -30 -94 -1 -42 -6 -73 -15 -85 -8 -11 -15 -32
-15 -46 0 -15 -11 -48 -25 -74 -14 -26 -25 -58 -25 -71 0 -13 -7 -30 -15 -39
-10 -10 -15 -35 -15 -76 0 -45 -4 -62 -15 -66 -8 -4 -15 -16 -15 -29 0 -13 -7
-25 -15 -29 -9 -3 -15 -18 -15 -39 0 -19 -6 -40 -14 -46 -11 -9 -13 -26 -9
-64 4 -41 2 -56 -11 -66 -9 -7 -16 -28 -16 -46 0 -18 -7 -38 -15 -45 -8 -7
-15 -20 -15 -30 0 -10 -7 -23 -15 -30 -10 -8 -15 -31 -15 -70 0 -39 -5 -62
-15 -70 -8 -7 -15 -27 -15 -46 0 -18 -4 -36 -10 -39 -5 -3 -10 -16 -10 -29 0
-12 -7 -31 -15 -42 -8 -11 -14 -42 -15 -75 0 -38 -5 -61 -15 -69 -8 -7 -15
-20 -15 -30 0 -10 -7 -23 -15 -30 -8 -7 -15 -27 -15 -44 0 -17 -7 -40 -15 -50
-8 -11 -15 -37 -15 -58 0 -21 -7 -50 -16 -63 -10 -15 -14 -34 -10 -49 4 -16 0
-30 -9 -40 -8 -8 -15 -28 -15 -44 0 -16 -7 -35 -15 -42 -8 -7 -15 -27 -15 -45
0 -18 -7 -38 -15 -45 -9 -7 -15 -29 -15 -55 0 -26 -6 -48 -15 -55 -9 -8 -15
-30 -15 -57 0 -27 -6 -51 -15 -60 -9 -8 -13 -23 -10 -32 3 -9 -2 -26 -10 -37
-8 -10 -15 -33 -15 -50 0 -17 -7 -37 -15 -44 -9 -7 -15 -29 -15 -54 0 -23 -7
-51 -15 -62 -8 -10 -15 -31 -15 -45 0 -15 -7 -32 -15 -39 -8 -7 -15 -27 -15
-45 0 -21 -6 -35 -16 -39 -12 -5 -15 -19 -12 -68 2 -42 -1 -63 -10 -66 -6 -2
-12 -18 -12 -37 0 -18 -7 -38 -15 -45 -8 -7 -15 -27 -15 -45 0 -18 -7 -38 -15
-45 -8 -7 -15 -29 -15 -49 0 -20 -7 -45 -15 -55 -9 -11 -15 -41 -15 -68 0 -26
-4 -48 -10 -48 -5 0 -13 -12 -16 -27 -4 -16 -12 -31 -17 -35 -6 -3 -10 -26 -9
-50 1 -24 -5 -56 -13 -72 -8 -15 -15 -37 -15 -47 0 -11 -7 -22 -15 -25 -11 -5
-15 -22 -15 -70 0 -62 1 -64 25 -64 14 0 28 -7 31 -15 5 -13 186 -15 1540 -15
1084 0 1534 3 1534 11 0 6 7 17 15 25 8 9 15 24 15 35 0 10 5 19 10 19 6 0 10
22 10 49 0 31 5 53 15 61 8 7 15 20 15 30 0 10 7 23 15 30 9 8 14 28 12 58 -1
29 3 47 11 50 7 2 12 24 12 57 0 34 5 57 15 65 8 7 15 28 15 47 0 20 6 36 14
39 20 8 -211 301 -335 425 -160 161 -287 249 -651 449 -207 113 -262 154 -289
214 -23 50 -24 94 -4 171 20 74 333 1156 545 1880 87 297 233 799 325 1115
294 1016 272 957 499 1350 136 235 259 521 355 825 51 162 495 1706 557 1935
191 709 314 1370 318 1712 0 75 -1 138 -4 141 -11 10 -429 27 -666 27 -215 0
-253 -2 -258 -15z"/>
<path d="M11268 14387 c-16 -13 -28 -31 -28 -40 0 -10 -7 -20 -15 -23 -9 -4
-15 -19 -15 -39 0 -18 -7 -38 -15 -45 -8 -7 -15 -27 -15 -45 0 -18 -7 -38 -15
-45 -11 -9 -14 -22 -10 -42 5 -19 1 -37 -9 -53 -9 -13 -16 -37 -16 -53 0 -16
-7 -35 -15 -42 -8 -7 -15 -27 -15 -45 0 -20 -6 -35 -15 -39 -11 -4 -15 -20
-15 -54 0 -32 -5 -54 -15 -62 -9 -7 -15 -29 -15 -55 0 -26 -6 -48 -15 -55 -8
-7 -15 -21 -15 -31 0 -10 -4 -21 -10 -24 -5 -3 -10 -26 -10 -50 0 -25 -6 -50
-15 -59 -9 -8 -15 -33 -15 -59 0 -27 -6 -49 -15 -57 -8 -7 -15 -21 -15 -32 0
-10 -7 -21 -15 -24 -10 -4 -15 -21 -15 -54 0 -30 -5 -52 -15 -60 -11 -9 -15
-30 -14 -73 1 -39 -2 -62 -9 -65 -7 -2 -12 -12 -12 -22 0 -9 -7 -23 -15 -30
-8 -7 -15 -28 -15 -47 0 -21 -6 -36 -15 -39 -10 -4 -15 -21 -15 -54 0 -30 -6
-52 -15 -60 -8 -7 -15 -28 -15 -46 0 -19 -4 -34 -10 -34 -5 0 -13 -12 -16 -27
-4 -16 -10 -32 -14 -38 -5 -5 -10 -37 -13 -70 -4 -61 -24 -126 -45 -147 -7 -7
-12 -26 -12 -44 0 -17 -7 -37 -15 -44 -9 -8 -15 -30 -15 -59 0 -25 -7 -55 -15
-65 -8 -11 -15 -29 -15 -41 0 -12 -5 -26 -11 -32 -6 -6 -12 -26 -13 -44 -1
-18 -8 -35 -14 -37 -8 -2 -12 -27 -12 -67 0 -43 -5 -66 -15 -75 -8 -7 -15 -27
-15 -45 0 -20 -6 -35 -15 -39 -9 -3 -15 -18 -15 -39 0 -19 -7 -40 -15 -47 -10
-8 -15 -30 -15 -60 0 -29 -5 -50 -12 -52 -7 -3 -11 -18 -10 -35 1 -17 -4 -36
-13 -43 -8 -7 -15 -28 -15 -47 0 -21 -6 -36 -15 -39 -10 -4 -15 -21 -15 -54 0
-30 -6 -52 -15 -60 -8 -7 -15 -29 -15 -49 0 -20 -7 -45 -15 -55 -8 -11 -15
-34 -15 -52 0 -17 -7 -37 -15 -44 -9 -7 -13 -21 -9 -35 3 -13 -1 -28 -10 -38
-9 -8 -16 -29 -16 -44 0 -16 -7 -38 -15 -49 -9 -12 -14 -44 -15 -90 0 -54 -4
-73 -15 -78 -8 -3 -15 -13 -15 -23 0 -10 -7 -27 -15 -37 -8 -11 -15 -32 -15
-47 0 -14 -6 -32 -14 -38 -9 -8 -12 -24 -9 -49 4 -27 1 -42 -11 -51 -9 -7 -16
-28 -16 -46 0 -18 -7 -38 -15 -45 -8 -7 -15 -27 -15 -45 0 -20 -6 -35 -15 -39
-11 -4 -15 -21 -15 -58 -1 -31 -7 -61 -15 -72 -8 -11 -15 -32 -15 -46 0 -15
-11 -48 -25 -74 -18 -33 -25 -63 -25 -100 0 -35 -5 -58 -15 -66 -8 -7 -15 -27
-15 -45 0 -18 -7 -38 -15 -45 -8 -7 -15 -20 -15 -30 0 -10 -7 -24 -16 -31 -12
-10 -15 -25 -12 -61 3 -31 0 -54 -8 -66 -7 -9 -14 -36 -14 -59 0 -23 -7 -48
-15 -57 -8 -8 -15 -24 -15 -36 0 -11 -7 -23 -15 -26 -10 -4 -15 -20 -15 -44 0
-22 -5 -40 -13 -43 -10 -4 -13 -20 -9 -59 3 -41 0 -58 -12 -70 -9 -9 -16 -26
-16 -38 0 -11 -7 -23 -15 -26 -10 -4 -15 -20 -15 -45 0 -25 -5 -42 -14 -45
-11 -4 -13 -19 -9 -63 5 -47 2 -60 -13 -76 -47 -47 -3 -395 68 -540 62 -124
128 -142 573 -147 173 -3 195 -1 247 19 84 31 160 86 276 198 125 120 205 224
266 345 64 128 48 76 495 1600 286 975 345 1135 671 1807 127 262 132 277 160
410 16 76 41 181 55 233 82 304 150 975 129 1273 -5 75 -12 138 -14 140 -15
14 -435 27 -850 27 l-475 -1 -27 -22z"/>
<path d="M15000 12799 c-778 -10 -1249 -46 -1640 -125 -153 -31 -260 -66 -322
-106 -58 -37 -131 -142 -164 -237 -38 -108 -57 -332 -58 -661 -1 -281 -1 -286
23 -333 31 -65 103 -119 271 -208 74 -40 164 -88 200 -108 62 -35 66 -36 83
-19 9 10 17 32 17 48 0 18 6 33 15 36 11 5 15 22 15 69 0 47 4 64 15 69 8 3
15 14 15 24 0 34 42 62 93 62 25 0 49 5 52 10 10 17 160 12 175 -5 16 -20 100
-20 126 0 29 22 4146 22 4184 0 19 -11 72 -14 237 -15 130 0 214 -4 218 -10 3
-5 19 -10 35 -10 16 0 32 5 35 10 3 6 15 10 27 10 11 0 42 21 69 47 39 37 49
54 49 79 0 17 7 37 15 44 10 8 15 31 15 69 0 47 4 61 23 79 37 35 76 29 122
-18 21 -22 46 -40 55 -40 9 0 29 -13 45 -30 16 -16 33 -30 38 -30 5 0 26 -13
47 -30 21 -16 45 -30 54 -30 9 0 16 -4 16 -10 0 -5 8 -10 18 -10 10 0 31 -13
47 -30 16 -16 36 -30 45 -30 9 0 29 -13 45 -30 16 -16 33 -30 38 -30 6 0 25
-11 43 -25 18 -14 39 -25 46 -25 8 0 25 -13 38 -30 14 -16 33 -29 43 -30 10 0
28 -10 40 -22 29 -31 115 -88 130 -88 7 0 30 -18 52 -40 25 -24 50 -39 66 -40
14 0 38 -10 52 -23 23 -19 27 -31 27 -75 0 -50 -1 -52 -28 -52 -16 0 -37 -7
-48 -15 -10 -8 -26 -15 -35 -15 -9 0 -22 -7 -29 -15 -7 -8 -20 -15 -30 -15
-10 0 -23 -7 -30 -15 -7 -8 -20 -15 -30 -15 -10 0 -23 -7 -30 -15 -7 -8 -19
-15 -27 -15 -7 0 -26 -11 -41 -25 -15 -14 -32 -25 -38 -25 -6 0 -17 -7 -24
-15 -7 -8 -20 -15 -30 -15 -10 0 -23 -7 -30 -15 -7 -8 -27 -15 -45 -15 -18 0
-38 -7 -45 -15 -7 -8 -16 -15 -21 -15 -5 0 -27 -11 -49 -25 -22 -14 -48 -25
-59 -25 -10 0 -24 -7 -31 -15 -7 -8 -20 -15 -30 -15 -10 0 -23 -7 -30 -15 -7
-8 -20 -15 -30 -15 -10 0 -23 -7 -30 -15 -7 -8 -20 -15 -30 -15 -10 0 -20 -7
-24 -15 -3 -8 -14 -15 -24 -15 -11 0 -25 -7 -32 -15 -7 -8 -21 -15 -30 -15
-10 0 -27 -11 -38 -25 -11 -14 -27 -25 -35 -25 -8 0 -20 -7 -27 -15 -7 -8 -20
-15 -30 -15 -10 0 -23 -7 -30 -15 -7 -8 -20 -15 -30 -15 -10 0 -20 -7 -24 -15
-3 -8 -14 -15 -24 -15 -10 0 -29 -13 -42 -30 -14 -16 -35 -29 -47 -30 -29 0
-29 -2 6 -140 63 -246 114 -353 218 -450 111 -105 248 -150 452 -150 190 0
422 51 603 134 94 43 262 143 336 199 72 56 177 167 246 260 157 214 233 403
308 766 30 145 32 170 31 351 0 206 -17 369 -68 645 -35 192 -68 302 -126 424
-126 265 -284 398 -544 456 -230 51 -637 99 -970 114 -221 11 -3369 10 -4135
0z"/>
<path d="M14425 10551 c-40 -6 -333 -144 -432 -204 -31 -18 -53 -38 -53 -48 0
-9 -7 -19 -15 -23 -10 -4 -15 -20 -15 -51 0 -31 -5 -47 -15 -51 -8 -4 -15 -14
-15 -24 0 -10 -7 -23 -15 -30 -8 -7 -15 -28 -15 -47 0 -21 -6 -36 -15 -39 -11
-4 -15 -21 -15 -58 0 -30 -6 -60 -15 -72 -8 -10 -15 -29 -15 -40 0 -12 -7 -24
-15 -28 -9 -3 -15 -18 -15 -39 0 -20 -7 -40 -16 -48 -12 -10 -15 -25 -12 -61
3 -31 0 -54 -8 -66 -7 -9 -14 -31 -14 -48 0 -17 -7 -37 -15 -44 -8 -7 -15 -20
-15 -29 0 -10 -7 -26 -15 -37 -8 -10 -15 -37 -15 -60 0 -22 -7 -49 -15 -60 -8
-10 -15 -35 -15 -55 0 -23 -6 -39 -15 -43 -9 -3 -15 -18 -15 -39 0 -18 -5 -38
-11 -44 -6 -6 -12 -26 -13 -44 -1 -18 -8 -35 -14 -37 -7 -2 -12 -24 -12 -52 0
-30 -5 -52 -15 -60 -8 -7 -15 -28 -15 -47 0 -21 -6 -36 -15 -39 -10 -4 -15
-20 -15 -48 0 -22 -7 -50 -15 -60 -8 -11 -15 -33 -15 -49 0 -15 -7 -35 -15
-44 -9 -9 -13 -23 -10 -34 4 -11 -1 -33 -9 -51 -9 -17 -16 -46 -16 -65 0 -21
-6 -36 -15 -39 -9 -4 -15 -19 -15 -39 0 -18 -7 -38 -15 -45 -9 -8 -15 -30 -15
-60 0 -30 -6 -52 -15 -60 -8 -7 -15 -24 -15 -39 0 -14 -7 -34 -14 -44 -7 -9
-11 -27 -9 -40 3 -14 -2 -29 -11 -36 -10 -9 -16 -29 -16 -56 0 -26 -6 -48 -15
-55 -10 -8 -15 -30 -15 -62 0 -34 -4 -50 -15 -54 -8 -4 -15 -16 -15 -29 0 -13
-7 -25 -15 -29 -11 -4 -15 -20 -15 -56 0 -28 -7 -64 -14 -79 -8 -15 -13 -37
-10 -48 3 -11 -1 -27 -10 -36 -9 -8 -16 -22 -16 -30 0 -8 -7 -20 -15 -27 -9
-7 -15 -29 -15 -55 0 -26 -6 -48 -15 -55 -8 -7 -15 -27 -15 -44 0 -18 -7 -41
-15 -52 -8 -10 -15 -31 -15 -45 0 -15 -7 -32 -15 -39 -9 -8 -13 -21 -9 -32 3
-10 -1 -30 -10 -43 -10 -15 -16 -46 -16 -80 0 -40 -4 -57 -15 -61 -8 -4 -15
-14 -15 -24 0 -10 -7 -23 -15 -30 -8 -7 -15 -27 -15 -45 0 -18 -7 -38 -15 -45
-10 -8 -15 -30 -15 -65 0 -36 -8 -66 -25 -99 -14 -26 -25 -60 -25 -77 0 -17
-6 -32 -15 -35 -11 -5 -15 -22 -15 -69 0 -43 -5 -66 -15 -75 -8 -7 -15 -20
-15 -30 0 -10 -7 -23 -15 -30 -8 -7 -15 -19 -15 -27 0 -8 -7 -21 -15 -29 -10
-11 -13 -27 -9 -58 5 -31 1 -54 -10 -77 -9 -17 -16 -40 -16 -49 0 -10 -7 -23
-15 -30 -8 -7 -15 -27 -15 -45 0 -18 -7 -38 -15 -45 -9 -8 -15 -30 -15 -60 0
-33 -5 -50 -15 -54 -9 -3 -15 -18 -15 -39 0 -19 -7 -40 -16 -48 -9 -8 -13 -21
-10 -35 4 -13 0 -29 -9 -38 -9 -8 -15 -33 -15 -59 0 -27 -6 -49 -15 -57 -8 -7
-15 -28 -15 -47 0 -21 -6 -36 -15 -39 -9 -4 -15 -19 -15 -38 0 -17 -7 -40 -15
-50 -8 -11 -15 -40 -15 -65 0 -25 -7 -55 -15 -65 -8 -11 -15 -32 -15 -47 0
-15 -4 -31 -10 -34 -5 -3 -10 -21 -10 -39 0 -18 -7 -41 -15 -52 -8 -10 -15
-38 -15 -60 0 -24 -6 -47 -15 -54 -8 -7 -15 -20 -15 -30 0 -10 -7 -23 -15 -30
-9 -8 -15 -30 -15 -59 0 -25 -7 -55 -15 -65 -8 -11 -15 -32 -15 -47 0 -15 -4
-31 -10 -34 -5 -3 -10 -23 -10 -44 0 -22 -6 -44 -15 -51 -10 -8 -15 -30 -15
-62 0 -34 -4 -50 -15 -54 -9 -4 -15 -19 -15 -39 0 -18 -7 -38 -15 -45 -8 -7
-15 -27 -15 -45 0 -18 -7 -38 -15 -45 -9 -7 -15 -30 -15 -54 0 -22 -7 -49 -14
-59 -7 -9 -11 -27 -9 -40 3 -14 -2 -29 -11 -36 -9 -8 -16 -28 -16 -46 0 -20
-6 -35 -15 -39 -11 -4 -15 -20 -15 -54 0 -32 -5 -54 -15 -62 -8 -7 -15 -27
-15 -45 0 -19 -8 -48 -17 -67 -9 -18 -21 -42 -26 -52 -5 -11 -10 -33 -11 -50
-1 -16 -8 -32 -14 -34 -7 -2 -12 -18 -12 -37 0 -18 -7 -38 -15 -45 -27 -22
-18 -66 20 -105 l36 -35 1540 0 c1359 0 1540 2 1545 15 4 8 14 15 23 15 33 0
61 43 61 92 0 32 5 48 15 52 12 4 14 15 9 44 -5 31 0 50 25 97 17 32 31 70 31
86 0 15 5 31 10 34 6 3 10 35 10 70 0 47 4 64 15 69 8 3 15 13 15 23 0 28
-223 307 -329 413 -172 171 -300 257 -648 437 -310 160 -345 196 -330 336 3
29 56 221 117 427 194 657 458 1531 498 1655 102 310 224 609 421 1027 122
261 141 312 161 427 6 36 26 119 45 185 91 335 151 934 126 1267 -6 87 -14
165 -17 172 -3 9 -28 17 -66 21 -76 8 -808 5 -863 -3z"/>
<path d="M18550 10490 c0 -5 5 -10 11 -10 5 0 7 5 4 10 -3 6 -8 10 -11 10 -2
0 -4 -4 -4 -10z"/>
<path d="M6383 10335 c-17 -7 -65 -36 -105 -63 -41 -28 -139 -85 -219 -127
-189 -101 -275 -162 -380 -265 -180 -177 -294 -407 -320 -645 -15 -138 -6
-298 27 -515 33 -218 76 -393 178 -723 101 -327 120 -396 141 -507 24 -128 25
-130 35 -130 6 0 10 25 10 55 0 42 3 55 15 55 12 0 15 14 15 65 0 49 4 67 15
71 8 4 15 17 15 30 0 14 7 27 15 30 9 4 15 19 15 40 0 22 6 37 15 40 11 5 15
23 15 70 0 48 4 66 15 70 8 4 15 16 15 29 0 13 7 25 15 29 8 3 15 18 15 34 0
15 5 33 12 40 6 6 10 36 9 70 -1 43 2 62 14 72 8 7 15 25 15 41 0 15 7 34 15
43 8 8 15 21 15 29 0 8 7 20 15 27 10 9 15 32 15 75 0 47 4 64 15 69 9 3 15
18 15 39 0 19 7 40 15 47 8 7 15 19 15 27 0 8 7 21 15 29 10 10 15 35 15 73 0
38 5 63 14 70 9 8 12 24 9 49 -4 27 -1 42 11 51 9 7 16 28 16 46 0 18 7 38 15
45 8 7 15 27 15 45 0 20 6 35 15 39 11 4 15 20 15 54 0 32 5 54 15 62 8 7 15
26 15 42 0 16 6 36 14 43 9 9 12 29 9 62 -3 34 0 54 11 68 9 11 24 31 34 44
21 28 52 23 52 -7 0 -11 7 -25 15 -32 12 -10 15 -38 15 -129 0 -79 4 -121 12
-129 8 -8 11 -37 10 -80 -3 -52 0 -72 12 -82 10 -8 16 -29 16 -55 0 -26 6 -48
15 -55 12 -10 15 -40 15 -155 0 -115 3 -145 15 -155 10 -8 15 -31 15 -64 0
-29 7 -59 15 -70 8 -11 15 -41 15 -66 0 -25 5 -51 12 -58 7 -7 10 -52 9 -135
-2 -102 1 -126 13 -137 12 -9 16 -31 16 -85 0 -52 4 -76 15 -85 9 -8 15 -30
15 -60 0 -33 5 -50 15 -54 12 -4 15 -28 15 -124 0 -94 3 -122 15 -132 11 -9
15 -34 15 -100 0 -67 4 -91 15 -100 10 -9 14 -22 10 -39 -3 -14 2 -39 10 -55
10 -18 15 -57 15 -111 0 -61 4 -86 15 -95 12 -10 15 -38 15 -130 0 -96 3 -119
15 -124 11 -4 15 -20 15 -54 0 -32 5 -54 15 -62 10 -8 15 -31 15 -69 1 -35 6
-64 16 -76 12 -16 15 -46 13 -152 -2 -93 1 -137 9 -145 7 -7 12 -34 12 -60 0
-34 5 -50 15 -54 11 -5 15 -22 15 -69 0 -43 5 -66 15 -75 12 -10 15 -39 15
-140 0 -101 3 -130 15 -140 10 -8 15 -31 15 -69 1 -33 7 -64 15 -75 10 -13 15
-43 15 -87 0 -37 5 -71 10 -74 6 -4 10 -58 10 -129 0 -92 4 -127 15 -142 9
-12 14 -43 15 -82 0 -46 4 -64 15 -68 12 -5 15 -24 15 -84 0 -57 4 -81 15 -90
11 -9 15 -36 15 -109 1 -68 5 -102 15 -115 10 -13 15 -43 15 -87 0 -37 5 -71
10 -74 6 -3 10 -41 10 -83 1 -52 5 -83 15 -96 11 -14 15 -46 15 -106 0 -60 4
-92 15 -106 8 -11 14 -42 15 -75 0 -38 5 -61 15 -69 10 -8 15 -31 15 -66 0
-48 3 -56 25 -66 14 -6 25 -17 25 -25 0 -20 3885 -19 3893 1 3 8 16 16 29 18
18 2 24 10 26 38 2 19 10 42 17 50 8 9 12 25 9 36 -3 12 1 28 10 37 9 8 16 29
16 45 0 16 7 35 15 42 9 8 15 30 15 60 0 33 5 50 15 54 10 3 15 19 15 44 0 21
7 47 15 58 8 10 15 36 15 56 0 20 5 38 12 40 7 3 11 21 10 50 -2 30 2 49 13
58 8 7 15 27 15 45 0 18 7 38 15 45 8 7 15 27 15 45 0 20 6 35 15 39 11 4 15
18 13 51 0 25 4 51 10 57 7 7 12 26 12 43 0 16 7 39 15 49 8 11 15 39 15 63 0
30 5 45 15 49 11 5 14 15 9 38 -4 23 -1 36 10 45 9 8 16 22 16 32 0 17 -2 17
-42 1 -76 -29 -320 -23 -583 16 -281 42 -393 69 -640 154 -386 134 -485 149
-1050 158 -480 7 -487 8 -557 77 -21 21 -44 56 -52 82 -9 25 -31 156 -51 291
-141 966 -189 1273 -246 1560 -104 530 -236 981 -449 1545 -56 149 -130 349
-165 446 -85 237 -157 412 -223 544 -101 202 -177 294 -298 357 -147 77 -667
228 -782 228 -32 -1 -71 -7 -89 -15z"/>
<path d="M20869 9460 c-141 -18 -209 -42 -552 -200 -391 -179 -731 -256 -1377
-312 -89 -7 -458 -12 -1075 -13 -651 -1 -982 -5 -1075 -13 -479 -44 -831 -115
-953 -192 -79 -50 -162 -193 -212 -367 -45 -153 -57 -253 -62 -513 -6 -272 3
-336 54 -415 22 -34 499 -515 510 -515 3 0 1 9 -2 20 -9 27 3 60 22 60 9 0 13
6 9 15 -3 8 2 22 11 31 11 11 16 30 14 54 -1 24 3 43 13 53 9 9 16 33 16 56 0
22 7 46 15 55 8 8 15 29 15 46 0 18 6 33 15 36 8 4 15 16 15 29 0 12 7 28 15
35 8 7 15 18 15 24 0 7 10 22 23 34 l23 22 1501 0 c1322 0 1502 2 1513 15 9
10 32 15 75 15 47 0 64 4 69 15 4 12 24 15 86 15 44 0 80 4 80 8 0 12 73 42
102 42 14 0 31 7 38 15 7 9 29 15 55 15 26 0 48 6 55 15 7 8 27 15 45 15 18 0
38 7 45 15 7 8 20 15 30 15 10 0 23 7 30 15 7 8 22 15 33 15 11 0 35 11 53 25
18 14 39 25 47 25 8 0 20 7 27 15 7 8 27 15 45 15 18 0 38 7 45 15 7 8 19 15
28 15 8 0 25 11 38 25 13 14 29 25 37 25 8 0 20 7 27 15 7 8 20 15 30 15 10 0
23 7 30 15 7 8 20 15 29 15 10 0 30 14 46 30 16 17 35 30 43 30 8 0 25 11 38
25 13 14 29 25 37 25 8 0 20 7 27 15 7 8 19 15 26 15 8 0 44 27 79 60 35 33
69 60 76 60 6 0 42 32 81 70 39 39 76 70 83 70 19 0 430 418 433 441 2 11 24
39 48 61 25 23 43 47 40 54 -3 7 22 39 54 70 33 32 60 66 60 76 0 11 11 29 25
42 14 13 25 32 25 43 0 12 11 28 25 37 14 9 25 20 25 25 0 12 -108 80 -208
130 -217 109 -523 168 -733 141z"/>
</g>
</svg>
